<svg width="227" height="24" viewBox="0 0 227 24" fill="none" xmlns="http://www.w3.org/2000/svg">
<g clip-path="url(#clip0_51_2949)">
<path d="M162.699 0.941406H173.04C177.528 0.941406 179.082 3.44599 179.082 6.60012C179.082 9.75425 177.249 11.5377 175.127 11.9506C177.437 12.2588 179.427 14.0093 179.427 17.6093C179.427 21.2093 177.34 23.7469 172.974 23.7469H162.699V0.941406ZM172.152 10.8552C175.122 10.8552 176.325 9.51755 176.325 7.01297C176.325 4.50838 175.442 3.24232 172.497 3.24232H165.319V10.8552H172.147H172.152ZM172.721 21.446C175.66 21.446 176.675 19.7341 176.675 17.2955C176.675 14.5873 175.381 13.0075 172.218 13.0075H165.324V21.4405H172.726L172.721 21.446Z" fill="black"/>
<path d="M211.572 0.258789L216.349 9.68815C216.821 10.6845 217.298 11.6423 217.801 12.6001C218.278 11.6423 218.781 10.679 219.258 9.68815L224.061 0.258789H227L219.096 15.0716V23.0588H216.471V15.0716L208.566 0.258789H211.572Z" fill="black"/>
<path d="M68.9116 23.967L66.8556 18.1376H56.4534L54.3973 23.967H51.7422L59.7431 1.16699H63.6318L71.6023 23.967H68.9167H68.9116ZM66.0687 15.8422L61.6722 3.22571L57.2453 15.8422H66.0687Z" fill="black"/>
<path d="M0 12C0 5.10826 3.38109 0 10.656 0C16.9156 0 20.1088 3.08807 20.6825 8.77982H17.9614C17.4537 4.39266 15.2098 2.36697 10.5596 2.36697C5.24932 2.36697 2.7465 5.55413 2.7465 12C2.7465 18.4459 5.11732 21.633 10.5596 21.633C15.4941 21.633 17.5146 18.545 18.0832 14.2954H8.63041V12.1706H20.647V23.3835H18.2762V17.8294C17.3573 21.1541 14.9864 24 10.1788 24C3.25925 24 0 18.9248 0 12Z" fill="black"/>
<path d="M97.1328 1.81104H100.428C101.859 1.81104 102.352 2.6092 102.352 3.61104C102.352 4.61287 101.768 5.18535 101.093 5.31195C101.829 5.41104 102.463 5.967 102.463 7.11195C102.463 8.25691 101.798 9.06608 100.407 9.06608H97.1328V1.81104ZM100.143 4.97067C101.088 4.97067 101.473 4.54682 101.473 3.74865C101.473 2.95048 101.189 2.54865 100.255 2.54865H97.9705V4.97067H100.143ZM100.326 8.34498C101.26 8.34498 101.585 7.80003 101.585 7.02388C101.585 6.15966 101.174 5.65874 100.164 5.65874H97.9654V8.34498H100.321H100.326Z" fill="black"/>
<path d="M109.682 9.07709H108.865C108.794 8.83489 108.743 8.47709 108.743 7.95415V7.2881C108.743 6.25324 108.23 5.82388 107.301 5.82388H105.418V9.07709H104.58V1.81104H107.702C109.083 1.81104 109.758 2.55415 109.758 3.72113C109.758 4.69544 109.205 5.3725 108.459 5.55416C109.093 5.75232 109.545 6.07709 109.545 7.15049V7.91562C109.545 8.44957 109.616 8.80186 109.677 9.07159L109.682 9.07709ZM107.606 5.14682C108.54 5.14682 108.885 4.63489 108.885 3.8037C108.885 2.9725 108.494 2.54865 107.616 2.54865H105.418V5.14682H107.601H107.606Z" fill="black"/>
<path d="M116.852 9.07671L116.197 7.22167H112.882L112.227 9.07671H111.379L113.927 1.81616H115.166L117.704 9.07671H116.847H116.852ZM115.943 6.48956L114.542 2.47121L113.13 6.48956H115.938H115.943Z" fill="black"/>
<path d="M124.399 1.81104H125.227V9.07159H123.825L120.784 3.37434C120.612 3.02204 120.46 2.70828 120.363 2.42204V9.07159H119.525V1.81104H120.937L123.978 7.51929C124.11 7.7725 124.262 8.1303 124.399 8.44957V1.81104Z" fill="black"/>
<path d="M127.613 1.81104H130.395C132.588 1.81104 133.517 3.4514 133.517 5.42755C133.517 7.4037 132.588 9.07709 130.395 9.07709H127.613V1.81104ZM130.243 8.34498C132.025 8.34498 132.639 7.27159 132.639 5.42755C132.639 3.58351 132.035 2.54315 130.243 2.54315H128.451V8.33948H130.243V8.34498Z" fill="black"/>
<path d="M108.689 14.9175H109.516L107.993 22.178H106.582L104.983 15.6386L103.384 22.178H101.982L100.449 14.9175H101.297L102.698 21.6001L104.338 14.9175H105.648L107.277 21.6001L108.689 14.9175Z" fill="black"/>
<path d="M111.215 21.4459H112.636V15.6496H111.215V14.9175H114.89V15.6496H113.469V21.4459H114.89V22.178H111.215V21.4459Z" fill="black"/>
<path d="M118.977 15.6496H116.561V14.9175H122.201V15.6496H119.805V22.189H118.977V15.6496Z" fill="black"/>
<path d="M124.035 14.9175H124.873V18.0606H128.772V14.9175H129.599V22.178H128.772V18.7927H124.873V22.178H124.035V14.9175Z" fill="black"/>
</g>
<defs>
<clipPath id="clip0_51_2949">
<rect width="227" height="24" fill="white"/>
</clipPath>
</defs>
</svg>
