<svg width="85" height="85" viewBox="0 0 85 85" fill="none" xmlns="http://www.w3.org/2000/svg">
<path d="M41.5884 2.0214C41.9425 1.2362 43.0575 1.2362 43.4116 2.0214L47.2842 10.6087C47.574 11.2512 48.4197 11.4004 48.9118 10.8957L55.4879 4.15078C56.0892 3.53404 57.1369 3.91539 57.2011 4.77434L57.9031 14.1683C57.9557 14.8712 58.6994 15.3006 59.3344 14.9946L67.8208 10.9056C68.5968 10.5317 69.4509 11.2484 69.2175 12.0776L66.6642 21.1451C66.4732 21.8235 67.0252 22.4814 67.7266 22.4111L77.0997 21.4712C77.9567 21.3853 78.5142 22.3509 78.0113 23.0502L72.5108 30.6976C72.0992 31.2698 72.3929 32.0768 73.076 32.2506L82.2053 34.5732C83.0401 34.7856 83.2337 35.8836 82.5219 36.3687L74.7376 41.6736C74.1551 42.0706 74.1551 42.9294 74.7376 43.3264L82.5219 48.6313C83.2337 49.1164 83.0401 50.2144 82.2053 50.4268L73.076 52.7494C72.3929 52.9232 72.0992 53.7302 72.5108 54.3024L78.0113 61.9498C78.5142 62.6491 77.9567 63.6147 77.0997 63.5288L67.7266 62.5889C67.0252 62.5186 66.4732 63.1765 66.6642 63.8549L69.2175 72.9224C69.4509 73.7516 68.5968 74.4682 67.8208 74.0944L59.3344 70.0054C58.6994 69.6994 57.9557 70.1288 57.9031 70.8317L57.2011 80.2257C57.1369 81.0846 56.0892 81.466 55.4879 80.8492L48.9118 74.1043C48.4197 73.5996 47.574 73.7488 47.2842 74.3913L43.4116 82.9786C43.0575 83.7638 41.9425 83.7638 41.5884 82.9786L37.7158 74.3913C37.426 73.7488 36.5803 73.5996 36.0882 74.1043L29.5121 80.8492C28.9108 81.466 27.8631 81.0846 27.7989 80.2257L27.0969 70.8317C27.0443 70.1288 26.3006 69.6994 25.6656 70.0054L17.1792 74.0944C16.4032 74.4682 15.5491 73.7516 15.7825 72.9224L18.3358 63.8549C18.5268 63.1765 17.9748 62.5186 17.2734 62.5889L7.9003 63.5288C7.04325 63.6147 6.48576 62.6491 6.98871 61.9498L12.4892 54.3024C12.9008 53.7302 12.6071 52.9232 11.924 52.7494L2.79466 50.4268C1.9599 50.2144 1.76629 49.1164 2.47807 48.6313L10.2624 43.3264C10.8449 42.9294 10.8449 42.0706 10.2624 41.6736L2.47807 36.3687C1.76628 35.8836 1.9599 34.7856 2.79466 34.5732L11.924 32.2506C12.6071 32.0768 12.9008 31.2698 12.4892 30.6976L6.98871 23.0502C6.48576 22.3509 7.04325 21.3853 7.9003 21.4712L17.2734 22.4111C17.9748 22.4814 18.5268 21.8235 18.3358 21.1451L15.7825 12.0776C15.5491 11.2484 16.4032 10.5317 17.1792 10.9056L25.6656 14.9946C26.3006 15.3006 27.0443 14.8712 27.0969 14.1683L27.7989 4.77434C27.8631 3.91538 28.9108 3.53404 29.5121 4.15078L36.0882 10.8957C36.5803 11.4004 37.426 11.2512 37.7158 10.6087L41.5884 2.0214Z" fill="#A8CBC1"/>
<path d="M34.4937 51.603C33.6957 51.7423 33.0054 51.8247 32.4227 51.85C31.8527 51.888 31.3334 51.888 30.8647 51.85C30.4087 51.8247 29.9527 51.774 29.4967 51.698C29.0534 51.622 28.5594 51.546 28.0147 51.47C27.4827 51.394 26.8557 51.337 26.1337 51.299C25.4244 51.261 24.5631 51.2547 23.5497 51.28V49.741C24.0057 49.741 24.4617 49.7347 24.9177 49.722C25.3737 49.722 25.8234 49.6967 26.2667 49.646C26.7227 49.608 27.1661 49.5447 27.5967 49.456C28.0401 49.38 28.4707 49.2723 28.8887 49.133C29.3067 48.9937 29.7057 48.8227 30.0857 48.62V48.373C29.2497 48.6263 28.4834 48.7277 27.7867 48.677C27.0901 48.6263 26.4694 48.449 25.9247 48.145C25.3801 47.841 24.9241 47.423 24.5567 46.891C24.1894 46.359 23.9044 45.7383 23.7017 45.029C23.4991 44.3197 23.3977 43.5343 23.3977 42.673C23.3977 41.7357 23.5181 40.8743 23.7587 40.089C24.0121 39.3037 24.3794 38.6197 24.8607 38.037C25.3421 37.4543 25.9311 37.0047 26.6277 36.688C27.3244 36.3713 28.1224 36.213 29.0217 36.213C30.1617 36.213 31.1497 36.4727 31.9857 36.992C32.8344 37.5113 33.4867 38.2587 33.9427 39.234C34.4114 40.1967 34.6457 41.3683 34.6457 42.749C34.6457 43.7877 34.5064 44.6997 34.2277 45.485C33.9617 46.2577 33.5564 46.9227 33.0117 47.48C32.4797 48.0373 31.8021 48.5187 30.9787 48.924C30.1681 49.3167 29.2117 49.6523 28.1097 49.931V50.14C28.7177 50.2033 29.2687 50.254 29.7627 50.292C30.2567 50.3427 30.7444 50.368 31.2257 50.368C31.7071 50.3807 32.2074 50.3617 32.7267 50.311C33.2461 50.2603 33.8351 50.1717 34.4937 50.045V51.603ZM29.0597 47.708C29.8957 47.708 30.5987 47.518 31.1687 47.138C31.7387 46.7453 32.1631 46.1817 32.4417 45.447C32.7331 44.7123 32.8787 43.8257 32.8787 42.787C32.8787 41.6977 32.7204 40.7793 32.4037 40.032C32.0997 39.2847 31.6564 38.721 31.0737 38.341C30.5037 37.9483 29.8134 37.752 29.0027 37.752C28.1794 37.752 27.4827 37.9483 26.9127 38.341C26.3427 38.7337 25.9121 39.3037 25.6207 40.051C25.3294 40.7857 25.1837 41.685 25.1837 42.749C25.1837 43.8383 25.3357 44.7567 25.6397 45.504C25.9437 46.2387 26.3871 46.7897 26.9697 47.157C27.5524 47.5243 28.2491 47.708 29.0597 47.708ZM46.4983 49.247C45.8523 49.247 45.2253 49.0887 44.6173 48.772C44.022 48.4553 43.4583 48.031 42.9263 47.499C42.3943 46.9543 41.913 46.3463 41.4823 45.675C41.0516 45.0037 40.678 44.3133 40.3613 43.604C40.0446 42.882 39.7976 42.179 39.6203 41.495C39.4556 40.811 39.3733 40.1967 39.3733 39.652C39.3733 39.0313 39.4936 38.4613 39.7343 37.942C39.975 37.4227 40.336 37.0047 40.8173 36.688C41.3113 36.3587 41.9383 36.194 42.6983 36.194C43.3696 36.194 43.946 36.3207 44.4273 36.574C44.9086 36.8273 45.2696 37.1693 45.5103 37.6C45.7636 38.018 45.8903 38.493 45.8903 39.025C45.8903 39.4557 45.789 39.88 45.5863 40.298C45.3836 40.7033 45.048 41.077 44.5793 41.419C44.1106 41.7483 43.4773 42.027 42.6793 42.255L42.5273 41.913C43.148 41.4697 43.5913 41.0453 43.8573 40.64C44.1233 40.2347 44.2563 39.7977 44.2563 39.329C44.2563 38.8477 44.1233 38.4487 43.8573 38.132C43.5913 37.8153 43.205 37.657 42.6983 37.657C42.3183 37.657 42.008 37.7457 41.7673 37.923C41.5393 38.0877 41.3683 38.322 41.2543 38.626C41.153 38.93 41.1023 39.272 41.1023 39.652C41.1023 40.0953 41.172 40.602 41.3113 41.172C41.4506 41.7293 41.6406 42.312 41.8813 42.92C42.1346 43.528 42.426 44.117 42.7553 44.687C43.0973 45.257 43.471 45.7763 43.8763 46.245C44.2816 46.701 44.706 47.062 45.1493 47.328C45.5926 47.594 46.036 47.727 46.4793 47.727C46.8846 47.727 47.195 47.6257 47.4103 47.423C47.6383 47.2077 47.7523 46.9417 47.7523 46.625C47.7523 46.2703 47.6256 45.9347 47.3723 45.618C47.119 45.2887 46.7516 44.991 46.2703 44.725C45.8016 44.459 45.2316 44.2627 44.5603 44.136V42.464H48.9683V43.889L45.4723 43.433V43.794C46.7643 44.0473 47.727 44.44 48.3603 44.972C48.9936 45.504 49.3103 46.1437 49.3103 46.891C49.3103 47.309 49.2216 47.67 49.0443 47.974C48.867 48.2653 48.639 48.506 48.3603 48.696C48.0816 48.886 47.7776 49.0253 47.4483 49.114C47.1316 49.2027 46.815 49.247 46.4983 49.247ZM39.8103 49.228C39.1516 49.228 38.5753 49.1013 38.0813 48.848C37.5873 48.5947 37.2073 48.24 36.9413 47.784C36.6753 47.328 36.5423 46.8087 36.5423 46.226C36.5423 45.7193 36.6436 45.2697 36.8463 44.877C37.049 44.4717 37.3276 44.1297 37.6823 43.851C38.0496 43.5597 38.474 43.319 38.9553 43.129C39.4366 42.939 39.956 42.806 40.5133 42.73L40.6083 43.281C39.8356 43.5723 39.2403 43.946 38.8223 44.402C38.4043 44.8453 38.1953 45.3457 38.1953 45.903C38.1953 46.245 38.2713 46.568 38.4233 46.872C38.588 47.176 38.835 47.423 39.1643 47.613C39.4936 47.803 39.899 47.898 40.3803 47.898C40.8743 47.898 41.305 47.7967 41.6723 47.594C42.0396 47.3913 42.388 47.1253 42.7173 46.796L43.2683 47.48H42.7743C42.5843 47.8347 42.35 48.145 42.0713 48.411C41.8053 48.6643 41.4823 48.8607 41.1023 49C40.735 49.152 40.3043 49.228 39.8103 49.228ZM50.863 49L55.271 36.46H57.817L62.225 49H60.344L56.658 37.923H56.43L52.744 49H50.863ZM52.953 46.188V44.858H60.344V46.188H52.953Z" fill="black"/>
</svg>
