<svg width="78" height="78" viewBox="0 0 78 78" fill="none" xmlns="http://www.w3.org/2000/svg">
<path d="M38.89 77.78C60.3684 77.78 77.78 60.3684 77.78 38.89C77.78 17.4116 60.3684 0 38.89 0C17.4116 0 0 17.4116 0 38.89C0 60.3684 17.4116 77.78 38.89 77.78Z" fill="black"/>
<path d="M20.6992 20.7002C30.7492 20.7002 38.8892 28.8502 38.8892 38.8902C38.8892 48.9302 30.7392 57.0802 20.6992 57.0802" stroke="#EBECE7" stroke-width="0.68" stroke-miterlimit="10"/>
<path d="M57.0884 57.09C47.0384 57.09 38.8984 48.94 38.8984 38.9C38.8984 28.86 47.0484 20.71 57.0884 20.71" stroke="#EBECE7" stroke-width="0.68" stroke-miterlimit="10"/>
<path d="M20.6992 20.7002C30.7492 20.7002 38.8892 28.8502 38.8892 38.8902C38.8892 48.9302 30.7392 57.0802 20.6992 57.0802" stroke="#EBECE7" stroke-width="0.68" stroke-miterlimit="10"/>
<path d="M57.0884 57.09C47.0384 57.09 38.8984 48.94 38.8984 38.9C38.8984 28.86 47.0484 20.71 57.0884 20.71" stroke="#EBECE7" stroke-width="0.68" stroke-miterlimit="10"/>
</svg>
