<svg width="78" height="78" viewBox="0 0 78 78" fill="none" xmlns="http://www.w3.org/2000/svg">
<path d="M38.89 77.78C60.3684 77.78 77.78 60.3684 77.78 38.89C77.78 17.4116 60.3684 0 38.89 0C17.4116 0 0 17.4116 0 38.89C0 60.3684 17.4116 77.78 38.89 77.78Z" fill="#D4D4FD"/>
<path d="M21.4491 56.0698L56.3691 56.0698L56.3691 21.1498L21.4491 21.1498L21.4491 56.0698Z" fill="black"/>
<path d="M47.6751 38.5258C43.5392 39.2521 40.2534 42.5387 39.5274 46.6756C38.8013 42.5387 35.5155 39.2521 31.375 38.5258C35.5109 37.7995 38.7967 34.5129 39.5274 30.376C40.2534 34.5129 43.5392 37.7995 47.6751 38.5258Z" fill="#D4D4FD" stroke="#D4D4FD" stroke-width="0.68" stroke-miterlimit="10"/>
<path d="M45.2885 44.2887C41.8504 41.8777 37.2031 41.8783 33.7644 44.2902C36.1762 40.8515 36.1768 36.2041 33.7626 32.7628C37.2007 35.1738 41.848 35.1732 45.29 32.7646C42.8781 36.2033 42.8775 40.8506 45.2885 44.2887Z" fill="#D4D4FD" stroke="#D4D4FD" stroke-width="0.68" stroke-miterlimit="10"/>
</svg>
