<svg width="78" height="78" viewBox="0 0 78 78" fill="none" xmlns="http://www.w3.org/2000/svg">
<path d="M38.89 77.78C60.3684 77.78 77.78 60.3684 77.78 38.89C77.78 17.4116 60.3684 0 38.89 0C17.4116 0 0 17.4116 0 38.89C0 60.3684 17.4116 77.78 38.89 77.78Z" fill="#F1CAB4"/>
<path d="M21.4491 56.0698L56.3691 56.0698L56.3691 21.1498L21.4491 21.1498L21.4491 56.0698Z" fill="black"/>
<path d="M31 39.0952C36.5048 38.1238 38.6905 33.2937 39.0952 31C39.0952 35.8571 45.9762 39.0952 48 39.0952C41.9286 39.9048 39.9048 43.9524 39.0952 48C38.2857 40.3095 31.8095 39.5 31 39.0952Z" fill="#F1CAB4"/>
<path d="M47.9966 38.9751C47.9831 34.0264 43.9747 30.0135 39.0215 30C39.3544 34.8047 43.1919 38.6422 47.9966 38.9751Z" stroke="#F1CAB4" stroke-width="0.68" stroke-miterlimit="10"/>
<path d="M38.9751 30C34.0264 30.0135 30.0135 34.0219 30 38.9751C34.8047 38.6422 38.6422 34.8047 38.9751 30Z" stroke="#F1CAB4" stroke-width="0.68" stroke-miterlimit="10"/>
<path d="M30 39.0244C30.0135 43.9731 34.0219 47.9861 38.9751 47.9996C38.6422 43.1948 34.8047 39.3573 30 39.0244Z" stroke="#F1CAB4" stroke-width="0.68" stroke-miterlimit="10"/>
<path d="M39.0273 47.9947C43.976 47.9812 47.989 43.9727 48.0025 39.0195C43.1977 39.3524 39.3603 43.1899 39.0273 47.9947Z" stroke="#F1CAB4" stroke-width="0.68" stroke-miterlimit="10"/>
</svg>
